G75*
%MOIN*%
%OFA0B0*%
%FSLAX25Y25*%
%IPPOS*%
%LPD*%
%AMOC8*
5,1,8,0,0,1.08239X$1,22.5*
%
%ADD10C,0.00500*%
D10*
X0484139Y0023575D02*
X0484589Y0023125D01*
X0485940Y0023125D01*
X0485940Y0025827D01*
X0484589Y0025827D01*
X0484139Y0025377D01*
X0484139Y0023575D01*
X0487085Y0023125D02*
X0487085Y0025827D01*
X0488887Y0025827D02*
X0487085Y0023125D01*
X0488887Y0023125D02*
X0488887Y0025827D01*
X0490032Y0025377D02*
X0490482Y0025827D01*
X0491383Y0025827D01*
X0491833Y0025377D01*
X0491833Y0023575D01*
X0491383Y0023125D01*
X0490482Y0023125D01*
X0490032Y0023575D01*
X0490032Y0024476D01*
X0490933Y0024476D01*
X0503033Y0023918D02*
X0503484Y0024368D01*
X0503934Y0023918D01*
X0503934Y0023017D01*
X0504384Y0022567D01*
X0504835Y0023017D01*
X0504835Y0024368D01*
X0504384Y0025513D02*
X0504835Y0025964D01*
X0504835Y0026864D01*
X0504384Y0027315D01*
X0503934Y0027315D01*
X0503934Y0025513D01*
X0503484Y0025513D02*
X0504384Y0025513D01*
X0503484Y0025513D02*
X0503033Y0025964D01*
X0503033Y0026864D01*
X0500936Y0026741D02*
X0500936Y0028092D01*
X0500485Y0028542D01*
X0500035Y0028542D01*
X0499584Y0028092D01*
X0499584Y0026741D01*
X0498233Y0026741D02*
X0498233Y0028092D01*
X0498684Y0028542D01*
X0499134Y0028542D01*
X0499584Y0028092D01*
X0498233Y0026741D02*
X0500936Y0026741D01*
X0503033Y0028460D02*
X0504835Y0028460D01*
X0504835Y0029360D02*
X0503934Y0028460D01*
X0504835Y0029360D02*
X0504835Y0029811D01*
X0504835Y0030915D02*
X0504835Y0031816D01*
X0505285Y0031365D02*
X0503484Y0031365D01*
X0503033Y0031816D01*
X0500035Y0032593D02*
X0500035Y0033494D01*
X0499584Y0033944D01*
X0499134Y0033944D01*
X0499134Y0032143D01*
X0498684Y0032143D02*
X0499584Y0032143D01*
X0500035Y0032593D01*
X0498684Y0032143D02*
X0498233Y0032593D01*
X0498233Y0033494D01*
X0495235Y0033248D02*
X0495235Y0032348D01*
X0494784Y0031897D01*
X0493884Y0031897D01*
X0493433Y0032348D01*
X0493433Y0033248D01*
X0493884Y0033699D01*
X0494784Y0033699D01*
X0495235Y0033248D01*
X0493884Y0034844D02*
X0494334Y0035294D01*
X0494334Y0036645D01*
X0494784Y0036645D02*
X0493433Y0036645D01*
X0493433Y0035294D01*
X0493884Y0034844D01*
X0495235Y0035294D02*
X0495235Y0036195D01*
X0494784Y0036645D01*
X0498233Y0036891D02*
X0498233Y0035540D01*
X0498684Y0035089D01*
X0499134Y0035540D01*
X0499134Y0036891D01*
X0499584Y0036891D02*
X0498233Y0036891D01*
X0498233Y0038036D02*
X0500936Y0038036D01*
X0500035Y0039387D02*
X0499134Y0038036D01*
X0498233Y0039387D01*
X0495235Y0039141D02*
X0495235Y0038691D01*
X0494334Y0037790D01*
X0493433Y0037790D02*
X0495235Y0037790D01*
X0499584Y0036891D02*
X0500035Y0036440D01*
X0500035Y0035540D01*
X0503033Y0035826D02*
X0503033Y0037177D01*
X0503484Y0037628D01*
X0503934Y0037628D01*
X0504384Y0037177D01*
X0504384Y0035826D01*
X0503033Y0035826D02*
X0505736Y0035826D01*
X0505736Y0037177D01*
X0505285Y0037628D01*
X0504835Y0037628D01*
X0504384Y0037177D01*
X0503033Y0038772D02*
X0503033Y0039673D01*
X0503033Y0039223D02*
X0505736Y0039223D01*
X0505736Y0038772D01*
X0495235Y0040696D02*
X0494784Y0040246D01*
X0493884Y0040246D01*
X0493433Y0040696D01*
X0493433Y0042047D01*
X0496136Y0042047D01*
X0495235Y0042047D02*
X0495235Y0040696D01*
X0503033Y0041187D02*
X0503484Y0040737D01*
X0504384Y0040737D01*
X0504835Y0041187D01*
X0504835Y0042088D01*
X0504384Y0042538D01*
X0503484Y0042538D01*
X0503033Y0042088D01*
X0503033Y0041187D01*
X0503484Y0043683D02*
X0503033Y0044134D01*
X0503033Y0045034D01*
X0503484Y0045485D01*
X0504384Y0045485D01*
X0504835Y0045034D01*
X0504835Y0044134D01*
X0504384Y0043683D01*
X0503484Y0043683D01*
X0500936Y0043888D02*
X0500485Y0043438D01*
X0498684Y0043438D01*
X0498233Y0043888D01*
X0498233Y0044789D01*
X0498684Y0045239D01*
X0500485Y0045239D01*
X0500936Y0044789D01*
X0500936Y0043888D01*
X0491833Y0045276D02*
X0490933Y0044375D01*
X0490032Y0045276D01*
X0490032Y0047077D01*
X0488887Y0046627D02*
X0488436Y0047077D01*
X0487536Y0047077D01*
X0487085Y0046627D01*
X0485940Y0046627D02*
X0485940Y0044825D01*
X0485490Y0044375D01*
X0484589Y0044375D01*
X0484139Y0044825D01*
X0487085Y0044825D02*
X0487536Y0044375D01*
X0488436Y0044375D01*
X0488887Y0044825D01*
X0488887Y0046627D01*
X0485940Y0046627D02*
X0485490Y0047077D01*
X0484589Y0047077D01*
X0484139Y0046627D01*
X0491833Y0047077D02*
X0491833Y0045276D01*
X0498233Y0046835D02*
X0498233Y0048186D01*
X0500035Y0048186D01*
X0503033Y0048431D02*
X0504384Y0048431D01*
X0504835Y0047981D01*
X0504384Y0047531D01*
X0503033Y0047531D01*
X0503033Y0046630D02*
X0504835Y0046630D01*
X0504835Y0047080D01*
X0504384Y0047531D01*
X0500035Y0046384D02*
X0498684Y0046384D01*
X0498233Y0046835D01*
X0498684Y0049781D02*
X0498233Y0050232D01*
X0498684Y0049781D02*
X0500485Y0049781D01*
X0500035Y0049331D02*
X0500035Y0050232D01*
X0500035Y0031039D02*
X0500035Y0030588D01*
X0499134Y0029687D01*
X0498233Y0029687D02*
X0500035Y0029687D01*
X0496136Y0030302D02*
X0496136Y0028951D01*
X0493433Y0028951D01*
X0493433Y0030302D01*
X0493884Y0030752D01*
X0494334Y0030752D01*
X0494784Y0030302D01*
X0494784Y0028951D01*
X0494784Y0030302D02*
X0495235Y0030752D01*
X0495685Y0030752D01*
X0496136Y0030302D01*
X0503033Y0023918D02*
X0503033Y0022567D01*
X0503934Y0021422D02*
X0503934Y0019620D01*
X0503484Y0019620D02*
X0504384Y0019620D01*
X0504835Y0020071D01*
X0504835Y0020971D01*
X0504384Y0021422D01*
X0503934Y0021422D01*
X0503033Y0020971D02*
X0503033Y0020071D01*
X0503484Y0019620D01*
X0500936Y0019252D02*
X0500936Y0018352D01*
X0500485Y0017901D01*
X0500035Y0017901D01*
X0499584Y0018352D01*
X0499584Y0019252D01*
X0499134Y0019703D01*
X0498684Y0019703D01*
X0498233Y0019252D01*
X0498233Y0018352D01*
X0498684Y0017901D01*
X0500936Y0016756D02*
X0500936Y0015856D01*
X0500936Y0016306D02*
X0498684Y0016306D01*
X0498233Y0015856D01*
X0498233Y0015405D01*
X0498684Y0014955D01*
X0503033Y0016674D02*
X0503033Y0018025D01*
X0503484Y0018475D01*
X0505285Y0018475D01*
X0505736Y0018025D01*
X0505736Y0016674D01*
X0503033Y0016674D01*
X0500936Y0019252D02*
X0500485Y0019703D01*
X0500936Y0020848D02*
X0500936Y0022649D01*
X0500936Y0021749D02*
X0498233Y0021749D01*
M02*
